<?xml version="1.0" encoding="UTF-8" standalone="no"?>
<svg xmlns="http://www.w3.org/2000/svg" width="900" height="450" viewBox="0 0 900 450">
<rect width="100%" height="100%" fill="#ffffff"/>
<text x="450" y="40" font-size="24" text-anchor="middle" fill="#333">2017-11 日志规模概览</text>
<rect x="80" y="60" width="80" height="300" fill="#6c8ebf" rx="6" ry="6"/>
<text x="120.0" y="380" font-size="14" text-anchor="middle" fill="#333">tcpLog</text>
<text x="120.0" y="54" font-size="12" text-anchor="middle" fill="#333">1,179,818</text>
<text x="120.0" y="400" font-size="11" text-anchor="middle" fill="#666">11-01 → 11-30</text>
<rect x="210" y="318" width="80" height="42" fill="#82b366" rx="6" ry="6"/>
<text x="250.0" y="380" font-size="14" text-anchor="middle" fill="#333">weblog</text>
<text x="250.0" y="312" font-size="12" text-anchor="middle" fill="#333">165,461</text>
<text x="250.0" y="400" font-size="11" text-anchor="middle" fill="#666">11-01 → 11-30</text>
<rect x="340" y="344" width="80" height="16" fill="#d6b656" rx="6" ry="6"/>
<text x="380.0" y="380" font-size="14" text-anchor="middle" fill="#333">login</text>
<text x="380.0" y="338" font-size="12" text-anchor="middle" fill="#333">65,684</text>
<text x="380.0" y="400" font-size="11" text-anchor="middle" fill="#666">11-01 → 11-30</text>
<rect x="470" y="349" width="80" height="11" fill="#b85450" rx="6" ry="6"/>
<text x="510.0" y="380" font-size="14" text-anchor="middle" fill="#333">email</text>
<text x="510.0" y="343" font-size="12" text-anchor="middle" fill="#333">45,271</text>
<text x="510.0" y="400" font-size="11" text-anchor="middle" fill="#666">11-01 → 11-30</text>
<rect x="600" y="359" width="80" height="1" fill="#9673a6" rx="6" ry="6"/>
<text x="640.0" y="380" font-size="14" text-anchor="middle" fill="#333">checking</text>
<text x="640.0" y="353" font-size="12" text-anchor="middle" fill="#333">6,750</text>
<text x="640.0" y="400" font-size="11" text-anchor="middle" fill="#666">11-01 → 11-30</text>
</svg>